<?xml version="1.0" encoding="UTF-8" standalone="no"?>
<!DOCTYPE svg PUBLIC "-//W3C//DTD SVG 1.1//EN" "http://www.w3.org/Graphics/SVG/1.1/DTD/svg11.dtd">
<svg version="1.1" xmlns="http://www.w3.org/2000/svg" xmlns:xlink="http://www.w3.org/1999/xlink" preserveAspectRatio="xMidYMid meet" viewBox="0 0 640 640" width="640" height="640"><defs><path d="M281.85 93.89L374.44 446.11L281.85 446.11L281.85 93.89Z" id="b177CamN9U"></path><path d="M361.72 316.15L372.79 440L307.21 394.19L361.72 316.15Z" id="a576fnNdf"></path><path d="M354.58 256.68L363.6 367.08L305.71 326.64L354.58 256.68Z" id="a1DR0SaLHu"></path><path d="M335.48 206.58L355.56 305.99L298.02 274.04L335.48 206.58Z" id="a2QV9RxJrD"></path><path d="M315.52 163.32L345.33 246.5L295.46 231.92L315.52 163.32Z" id="d1IK4esZh9"></path><path d="M296.5 204.15L283 102.24L325.33 190.29L296.5 204.15Z" id="b7jMXG0Ru"></path><path d="M280 446.3L320 446.3L320 567.04L280 567.04L280 446.3Z" id="bq3pYCAA1"></path><path d="M297.04 476.48L302.96 476.48L302.96 483.52L297.04 483.52L297.04 476.48Z" id="c69qxAbNSO"></path></defs><g><g><g><use xlink:href="#b177CamN9U" opacity="1" fill="#8d8d8d" fill-opacity="1"></use></g><g><use xlink:href="#a576fnNdf" opacity="1" fill="#0f0f07" fill-opacity="1"></use></g><g><use xlink:href="#a1DR0SaLHu" opacity="1" fill="#0f0f07" fill-opacity="1"></use></g><g><use xlink:href="#a2QV9RxJrD" opacity="1" fill="#0f0f07" fill-opacity="1"></use></g><g><use xlink:href="#d1IK4esZh9" opacity="1" fill="#0f0f07" fill-opacity="1"></use></g><g><use xlink:href="#b7jMXG0Ru" opacity="1" fill="#0f0f07" fill-opacity="1"></use></g><g><use xlink:href="#bq3pYCAA1" opacity="1" fill="#000000" fill-opacity="1"></use></g><g><use xlink:href="#c69qxAbNSO" opacity="1" fill="#ffffff" fill-opacity="1"></use></g></g></g></svg>