<?xml version="1.0" encoding="UTF-8" standalone="no"?>
<!DOCTYPE svg PUBLIC "-//W3C//DTD SVG 1.1//EN" "http://www.w3.org/Graphics/SVG/1.1/DTD/svg11.dtd">
<svg version="1.1" xmlns="http://www.w3.org/2000/svg" xmlns:xlink="http://www.w3.org/1999/xlink" preserveAspectRatio="xMidYMid meet" viewBox="0 0 640 640" width="640" height="640"><defs><path d="M340 190L198.46 265L198.46 415L340 490L481.54 415L481.54 265L340 190Z" id="bU4b4DEH7"></path><path d="M198.52 147.78L280 264.81L198.52 264.81L198.52 147.78Z" id="cAQDEKA1y"></path><path d="M481.48 150L400 267.04L481.48 267.04L481.48 150Z" id="aNB3zgEH"></path><path d="M418.35 330L440 349.23L427.88 360L406.23 340.77L384.58 360L372.46 349.23L394.11 330L372.46 310.77L384.58 300L406.23 319.23L427.88 300L440 310.77L418.35 330Z" id="c145maO9Fh"></path><path d="M338.79 410.43C331.66 405.76 313.82 394.08 285.29 375.39L279.58 389.99L233.57 360L287.44 426.72C290.09 419.93 291.75 415.69 292.41 413.99C294 409.92 299.05 408.52 302.51 411.18C307.5 415.03 319.99 424.64 339.97 440.02C340.11 420.9 339.72 411.04 338.79 410.43Z" id="b16SImoMg4"></path><path d="M341.21 410.43C348.34 405.76 366.18 394.08 394.71 375.39L400.42 389.99L446.43 360L392.56 426.72C389.91 419.93 388.25 415.69 387.59 413.99C386 409.92 380.95 408.52 377.49 411.18C372.5 415.03 360.01 424.64 340.03 440.02C339.89 420.9 340.28 411.04 341.21 410.43Z" id="a1dUWyHnS6"></path><path d="M285.89 330L307.54 349.23L295.42 360L273.77 340.77L252.12 360L240 349.23L261.65 330L240 310.77L252.12 300L273.77 319.23L295.42 300L307.54 310.77L285.89 330Z" id="eh4egMNvR"></path></defs><g><g><g><use xlink:href="#bU4b4DEH7" opacity="1" fill="#7d1a1d" fill-opacity="1"></use></g><g><use xlink:href="#cAQDEKA1y" opacity="1" fill="#7d1a1d" fill-opacity="1"></use></g><g><use xlink:href="#aNB3zgEH" opacity="1" fill="#7d1a1d" fill-opacity="1"></use></g><g><use xlink:href="#c145maO9Fh" opacity="1" fill="#000000" fill-opacity="1"></use></g><g><use xlink:href="#b16SImoMg4" opacity="1" fill="#000000" fill-opacity="1"></use></g><g><use xlink:href="#a1dUWyHnS6" opacity="1" fill="#a427ff" fill-opacity="1"></use></g><g><use xlink:href="#eh4egMNvR" opacity="1" fill="#a427ff" fill-opacity="1"></use></g></g></g></svg>