<?xml version="1.0" encoding="UTF-8" standalone="no"?>
<!DOCTYPE svg PUBLIC "-//W3C//DTD SVG 1.1//EN" "http://www.w3.org/Graphics/SVG/1.1/DTD/svg11.dtd">
<svg version="1.1" xmlns="http://www.w3.org/2000/svg" xmlns:xlink="http://www.w3.org/1999/xlink" preserveAspectRatio="xMidYMid meet" viewBox="0 0 640 640" width="640" height="640"><defs><path d="" id="a31l7ElMf"></path><path d="M213.24 373.1L406.69 443.01L506.76 170L213.24 373.1Z" id="ctkQrcNUJ"></path><path d="M415.41 310L507.21 168.33L323.6 168.33L140 168.33L231.79 310L323.6 451.67L415.41 310Z" id="e2YJEFRp8N"></path><path d="M155.09 380L492.87 380L492.87 446.93L155.09 446.93L155.09 380Z" id="gUvrfTTbZ"></path><path d="M433.51 370.09L240.06 440L140 166.99L433.51 370.09Z" id="a2vfgrcZQy"></path><path d="M346.67 300L413.33 300L413.33 408.89L346.67 408.89L346.67 300Z" id="i2mFWvLqN"></path><path d="M217.83 367.78L430 367.78L430 403.33L217.83 403.33L217.83 367.78Z" id="a1kcAO0eVV"></path></defs><g><g><g><g><use xlink:href="#a31l7ElMf" opacity="1" fill-opacity="0" stroke="#000000" stroke-width="1" stroke-opacity="1"></use></g></g><g><use xlink:href="#ctkQrcNUJ" opacity="1" fill="#36a579" fill-opacity="1"></use><g><use xlink:href="#ctkQrcNUJ" opacity="1" fill-opacity="0" stroke="#000000" stroke-width="1" stroke-opacity="0"></use></g></g><g><use xlink:href="#e2YJEFRp8N" opacity="1" fill="#36a579" fill-opacity="1"></use></g><g><use xlink:href="#gUvrfTTbZ" opacity="1" fill="#050405" fill-opacity="1"></use></g><g><use xlink:href="#a2vfgrcZQy" opacity="1" fill="#36a579" fill-opacity="1"></use><g><use xlink:href="#a2vfgrcZQy" opacity="1" fill-opacity="0" stroke="#000000" stroke-width="1" stroke-opacity="0"></use></g></g><g><use xlink:href="#i2mFWvLqN" opacity="1" fill="#ffffff" fill-opacity="1"></use></g><g><use xlink:href="#a1kcAO0eVV" opacity="1" fill="#bdbdbd" fill-opacity="1"></use></g></g></g></svg>