<?xml version="1.0" encoding="UTF-8" standalone="no"?>
<!DOCTYPE svg PUBLIC "-//W3C//DTD SVG 1.1//EN" "http://www.w3.org/Graphics/SVG/1.1/DTD/svg11.dtd">
<svg version="1.1" xmlns="http://www.w3.org/2000/svg" xmlns:xlink="http://www.w3.org/1999/xlink" preserveAspectRatio="xMidYMid meet" viewBox="0 0 640 640" width="640" height="640"><defs><path d="M208.46 265L208.46 415L350 490L491.54 415L491.54 265L350 190L208.46 265Z" id="e3maOMHQ9"></path><path d="M272.42 212.87L491.62 292.64L550 132.22L272.42 212.87Z" id="a6oLB8fitk"></path><path d="" id="a1efMKQ2Mb"></path><path d="M430.78 305.56L430.83 305.57L430.88 305.57L430.94 305.58L430.99 305.59L431.04 305.61L431.09 305.62L431.14 305.64L431.19 305.66L431.23 305.68L431.28 305.7L431.32 305.73L431.37 305.76L431.41 305.78L431.45 305.81L431.49 305.84L431.53 305.88L431.57 305.91L431.61 305.95L431.64 305.98L431.68 306.02L431.71 306.06L431.74 306.1L431.77 306.14L431.8 306.19L431.83 306.23L431.85 306.28L431.87 306.32L431.9 306.37L431.91 306.42L431.93 306.47L431.95 306.52L431.96 306.57L431.97 306.62L431.98 306.67L431.99 306.73L432 306.78L432 306.83L432 306.89L432 333.56L458.67 333.56L458.72 333.56L458.78 333.56L458.83 333.57L458.88 333.57L458.94 333.58L458.99 333.59L459.04 333.61L459.09 333.62L459.14 333.64L459.19 333.66L459.23 333.68L459.28 333.7L459.32 333.73L459.37 333.76L459.41 333.78L459.45 333.81L459.49 333.84L459.53 333.88L459.57 333.91L459.61 333.95L459.64 333.98L459.68 334.02L459.71 334.06L459.74 334.1L459.77 334.14L459.8 334.19L459.83 334.23L459.85 334.28L459.87 334.32L459.9 334.37L459.91 334.42L459.93 334.47L459.95 334.52L459.96 334.57L459.97 334.62L459.98 334.67L459.99 334.73L460 334.78L460 334.83L460 334.89L460 356.22L460 356.28L460 356.33L459.99 356.39L459.98 356.44L459.97 356.49L459.96 356.54L459.95 356.59L459.93 356.64L459.91 356.69L459.9 356.74L459.87 356.79L459.85 356.83L459.83 356.88L459.8 356.92L459.77 356.97L459.74 357.01L459.71 357.05L459.68 357.09L459.64 357.13L459.61 357.16L459.57 357.2L459.53 357.23L459.49 357.27L459.45 357.3L459.41 357.33L459.37 357.36L459.32 357.38L459.28 357.41L459.23 357.43L459.19 357.45L459.14 357.47L459.09 357.49L459.04 357.5L458.99 357.52L458.94 357.53L458.88 357.54L458.83 357.55L458.78 357.55L458.72 357.55L458.67 357.56L432 357.56L432 384.22L432 384.28L432 384.33L431.99 384.39L431.98 384.44L431.97 384.49L431.96 384.54L431.95 384.59L431.93 384.64L431.91 384.69L431.9 384.74L431.87 384.79L431.85 384.83L431.83 384.88L431.8 384.92L431.77 384.97L431.74 385.01L431.71 385.05L431.68 385.09L431.64 385.13L431.61 385.16L431.57 385.2L431.53 385.23L431.49 385.27L431.45 385.3L431.41 385.33L431.37 385.36L431.32 385.38L431.28 385.41L431.23 385.43L431.19 385.45L431.14 385.47L431.09 385.49L431.04 385.5L430.99 385.52L430.94 385.53L430.88 385.54L430.83 385.55L430.78 385.55L430.72 385.55L430.67 385.56L409.33 385.56L409.28 385.55L409.22 385.55L409.17 385.55L409.12 385.54L409.06 385.53L409.01 385.52L408.96 385.5L408.91 385.49L408.86 385.47L408.81 385.45L408.77 385.43L408.72 385.41L408.68 385.38L408.63 385.36L408.59 385.33L408.55 385.3L408.51 385.27L408.47 385.23L408.43 385.2L408.39 385.16L408.36 385.13L408.32 385.09L408.29 385.05L408.26 385.01L408.23 384.97L408.2 384.92L408.17 384.88L408.15 384.83L408.13 384.79L408.1 384.74L408.09 384.69L408.07 384.64L408.05 384.59L408.04 384.54L408.03 384.49L408.02 384.44L408.01 384.39L408 384.33L408 384.28L408 384.22L408 357.56L381.33 357.56L381.28 357.55L381.22 357.55L381.17 357.55L381.12 357.54L381.06 357.53L381.01 357.52L380.96 357.5L380.91 357.49L380.86 357.47L380.81 357.45L380.77 357.43L380.72 357.41L380.68 357.38L380.63 357.36L380.59 357.33L380.55 357.3L380.51 357.27L380.47 357.23L380.43 357.2L380.39 357.16L380.36 357.13L380.32 357.09L380.29 357.05L380.26 357.01L380.23 356.97L380.2 356.92L380.17 356.88L380.15 356.83L380.13 356.79L380.1 356.74L380.09 356.69L380.07 356.64L380.05 356.59L380.04 356.54L380.03 356.49L380.02 356.44L380.01 356.39L380 356.33L380 356.28L380 356.22L380 334.89L380 334.83L380 334.78L380.01 334.73L380.02 334.67L380.03 334.62L380.04 334.57L380.05 334.52L380.07 334.47L380.09 334.42L380.1 334.37L380.13 334.32L380.15 334.28L380.17 334.23L380.2 334.19L380.23 334.14L380.26 334.1L380.29 334.06L380.32 334.02L380.36 333.98L380.39 333.95L380.43 333.91L380.47 333.88L380.51 333.84L380.55 333.81L380.59 333.78L380.63 333.76L380.68 333.73L380.72 333.7L380.77 333.68L380.81 333.66L380.86 333.64L380.91 333.62L380.96 333.61L381.01 333.59L381.06 333.58L381.12 333.57L381.17 333.57L381.22 333.56L381.28 333.56L381.33 333.56L408 333.56L408 306.89L408 306.83L408 306.78L408.01 306.73L408.02 306.67L408.03 306.62L408.04 306.57L408.05 306.52L408.07 306.47L408.09 306.42L408.1 306.37L408.13 306.32L408.15 306.28L408.17 306.23L408.2 306.19L408.23 306.14L408.26 306.1L408.29 306.06L408.32 306.02L408.36 305.98L408.39 305.95L408.43 305.91L408.47 305.88L408.51 305.84L408.55 305.81L408.59 305.78L408.63 305.76L408.68 305.73L408.72 305.7L408.77 305.68L408.81 305.66L408.86 305.64L408.91 305.62L408.96 305.61L409.01 305.59L409.06 305.58L409.12 305.57L409.17 305.57L409.22 305.56L409.28 305.56L409.33 305.56L430.67 305.56L430.72 305.56L430.78 305.56Z" id="a46YTjVdZk"></path><path d="M294.36 347.41L320 373.05L305.64 387.41L280 361.77L254.36 387.41L240 373.05L265.64 347.41L240 321.77L254.36 307.41L280 333.05L305.64 307.41L320 321.77L294.36 347.41Z" id="e2aAO9cgiW"></path><path d="M427.58 212.45L208.38 292.22L150 131.8L427.58 212.45Z" id="f1nAoHQfuy"></path></defs><g><g><g><use xlink:href="#e3maOMHQ9" opacity="1" fill="#bdbdbd" fill-opacity="1"></use><g><use xlink:href="#e3maOMHQ9" opacity="1" fill-opacity="0" stroke="#000000" stroke-width="1" stroke-opacity="0"></use></g></g><g><use xlink:href="#a6oLB8fitk" opacity="1" fill="#f69a00" fill-opacity="1"></use><g><use xlink:href="#a6oLB8fitk" opacity="1" fill-opacity="0" stroke="#000000" stroke-width="1" stroke-opacity="0"></use></g></g><g><g><use xlink:href="#a1efMKQ2Mb" opacity="1" fill-opacity="0" stroke="#000000" stroke-width="1" stroke-opacity="1"></use></g></g><g><use xlink:href="#a46YTjVdZk" opacity="1" fill="#000000" fill-opacity="1"></use></g><g><use xlink:href="#e2aAO9cgiW" opacity="1" fill="#f69a00" fill-opacity="1"></use></g><g><use xlink:href="#f1nAoHQfuy" opacity="1" fill="#f69a00" fill-opacity="1"></use><g><use xlink:href="#f1nAoHQfuy" opacity="1" fill-opacity="0" stroke="#000000" stroke-width="1" stroke-opacity="0"></use></g></g></g></g></svg>