<?xml version="1.0" encoding="UTF-8" standalone="no"?>
<!DOCTYPE svg PUBLIC "-//W3C//DTD SVG 1.1//EN" "http://www.w3.org/Graphics/SVG/1.1/DTD/svg11.dtd">
<svg version="1.1" xmlns="http://www.w3.org/2000/svg" xmlns:xlink="http://www.w3.org/1999/xlink" preserveAspectRatio="xMidYMid meet" viewBox="0 0 640 640" width="640" height="640"><defs><path d="M375.87 266.81L501.58 272.36L540 152.52L438.02 72.91L336.58 143.54L375.87 266.81Z" id="d2A3EPu4vx"></path><path d="M120 282.79L319.99 130L520 282.79L443.6 530L196.39 530L120 282.79Z" id="ae2GaCFn"></path><path d="M365.56 530L443.34 530L443.34 630L365.56 630L365.56 530Z" id="b2kAUpvGvW"></path><path d="M120.5 280L143.27 354.37L47.65 383.64L24.88 309.27L120.5 280Z" id="bS2xZHBlh"></path><path d="M634.25 319.93L604.76 415.48L490 380.07L519.49 284.52L634.25 319.93Z" id="b2MtYIg3E8"></path><path d="M322.24 131.4L242.64 191.92L164.08 88.6L243.68 28.08L322.24 131.4Z" id="e13xRYNBiG"></path></defs><g><g><g><use xlink:href="#d2A3EPu4vx" opacity="1" fill="#7d1a1d" fill-opacity="1"></use></g><g><use xlink:href="#ae2GaCFn" opacity="1" fill="#295108" fill-opacity="1"></use></g><g><use xlink:href="#b2kAUpvGvW" opacity="1" fill="#7d1a1d" fill-opacity="1"></use></g><g><use xlink:href="#bS2xZHBlh" opacity="1" fill="#7d1a1d" fill-opacity="1"></use></g><g><use xlink:href="#b2MtYIg3E8" opacity="1" fill="#7d1a1d" fill-opacity="1"></use></g><g><use xlink:href="#e13xRYNBiG" opacity="1" fill="#7d1a1d" fill-opacity="1"></use></g></g></g></svg>