<?xml version="1.0" encoding="UTF-8" standalone="no"?>
<!DOCTYPE svg PUBLIC "-//W3C//DTD SVG 1.1//EN" "http://www.w3.org/Graphics/SVG/1.1/DTD/svg11.dtd">
<svg version="1.1" xmlns="http://www.w3.org/2000/svg" xmlns:xlink="http://www.w3.org/1999/xlink" preserveAspectRatio="xMidYMid meet" viewBox="0 0 640 640" width="640" height="640"><defs><path d="M120 282.79L319.99 130L520 282.79L443.6 530L196.39 530L120 282.79Z" id="i8L77Cguy"></path><path d="M302.59 530L372.59 530L372.59 620L302.59 620L302.59 530Z" id="b8X6P3iU5"></path><path d="M141.24 350L161.73 416.93L75.68 443.28L55.19 376.34L141.24 350Z" id="aDrxWZ14a"></path><path d="M583.32 373.11L562.68 440L476.68 413.46L497.32 346.57L583.32 373.11Z" id="aXTymk9WG"></path><path d="M267.43 172.13L211.86 214.39L157.01 142.25L212.59 100L267.43 172.13Z" id="b4ziTq0cKM"></path><path d="M420.09 104.45L503.98 104.76L525.74 185.79L455.29 235.55L390 185.28L420.09 104.45Z" id="e6IKxqZuNH"></path></defs><g><g><g><use xlink:href="#i8L77Cguy" opacity="1" fill="#295108" fill-opacity="1"></use></g><g><use xlink:href="#b8X6P3iU5" opacity="1" fill="#4f0f11" fill-opacity="1"></use></g><g><use xlink:href="#aDrxWZ14a" opacity="1" fill="#4f0f11" fill-opacity="1"></use></g><g><use xlink:href="#aXTymk9WG" opacity="1" fill="#4f0f11" fill-opacity="1"></use></g><g><use xlink:href="#b4ziTq0cKM" opacity="1" fill="#4f0f11" fill-opacity="1"></use></g><g><use xlink:href="#e6IKxqZuNH" opacity="1" fill="#4f0f11" fill-opacity="1"></use></g></g></g></svg>